<svg xmlns="http://www.w3.org/2000/svg" viewBox="0 0 372.11 58.52"><defs><style>.cls-1{fill:#fff;}</style></defs><g id="Ebene_2" data-name="Ebene 2"><g id="Logo"><polygon class="cls-1" points="42.52 0 21.26 21.26 28.35 28.35 42.52 14.17 56.69 28.35 63.78 21.26 42.52 0"/><polygon class="cls-1" points="42.52 21.26 21.26 42.52 28.35 49.61 42.52 35.43 56.69 49.61 63.78 42.52 42.52 21.26"/><polygon class="cls-1" points="60.24 31.89 67.32 38.98 85.04 21.26 70.87 21.26 60.24 31.89"/><polygon class="cls-1" points="24.8 31.89 17.72 38.98 0 21.26 14.17 21.26 24.8 31.89"/><path class="cls-1" d="M92.13,21.26h8.8l5,17.23,5.62-17.23h8.85L126,38.49l5-17.23h8.8l-9.13,28.3h-8.31l-6.38-18.2-6.37,18.2h-8.32Z"/><path class="cls-1" d="M155.8,50.37a16.49,16.49,0,0,1-6.75-1.27,14,14,0,0,1-4.78-3.37A13.59,13.59,0,0,1,141.44,41a16.81,16.81,0,0,1,0-11,13.59,13.59,0,0,1,2.83-4.78,14,14,0,0,1,4.78-3.37,18.57,18.57,0,0,1,13.5,0,13.94,13.94,0,0,1,4.78,3.37A13.61,13.61,0,0,1,170.17,30a16.81,16.81,0,0,1,0,11,13.61,13.61,0,0,1-2.84,4.78,13.94,13.94,0,0,1-4.78,3.37A16.43,16.43,0,0,1,155.8,50.37Zm0-7.24a6.47,6.47,0,0,0,5-2.08,7.91,7.91,0,0,0,1.92-5.59,7.92,7.92,0,0,0-1.92-5.59,7,7,0,0,0-10,0,7.92,7.92,0,0,0-1.92,5.59,7.91,7.91,0,0,0,1.92,5.59A6.46,6.46,0,0,0,155.8,43.13Z"/><path class="cls-1" d="M174.45,21.26h8.26v4a9.69,9.69,0,0,1,3.14-3.51,7.85,7.85,0,0,1,4.43-1.24h1v7.77a20.58,20.58,0,0,0-2.78.19,8.57,8.57,0,0,0-2.46.73,6,6,0,0,0-2,1.51,7.17,7.17,0,0,0-1.33,2.54V49.56h-8.26Z"/><path class="cls-1" d="M194.6,11.21h8.26V32.38l9.4-11.12h9.29v.22l-10.37,12L222.57,49.4v.16h-9.66L206.1,39.41l-3.24,3.72v6.43H194.6Z"/><path class="cls-1" d="M233.48,50.37a15.44,15.44,0,0,1-6.94-1.49,16.77,16.77,0,0,1-5-3.75l4.27-5.24a12.19,12.19,0,0,0,3.56,2.76,9.61,9.61,0,0,0,4.49,1.13,6,6,0,0,0,3.08-.67A2,2,0,0,0,238,41.35a1.72,1.72,0,0,0-1-1.67,8.79,8.79,0,0,0-2.61-.76l-2.6-.43a11.18,11.18,0,0,1-6.26-3,7.89,7.89,0,0,1-2.22-5.8,8.21,8.21,0,0,1,.81-3.62,8.59,8.59,0,0,1,2.33-2.92,11,11,0,0,1,3.67-1.94,15.82,15.82,0,0,1,4.91-.7A13.78,13.78,0,0,1,241,21.74a12.93,12.93,0,0,1,4.07,2.92L241,29.9a11.08,11.08,0,0,0-2.89-2,7.87,7.87,0,0,0-3.37-.72,3.82,3.82,0,0,0-2.35.59,1.81,1.81,0,0,0-.79,1.51c0,1.05.78,1.69,2.32,1.95l2.6.43c3.35.5,5.8,1.53,7.37,3.08a8.18,8.18,0,0,1,2.35,6.1A8.48,8.48,0,0,1,243,47.53a11.74,11.74,0,0,1-4,2.08A18,18,0,0,1,233.48,50.37Z"/><path class="cls-1" d="M249.58,21.26h8.26v3a11.43,11.43,0,0,1,3.62-2.65,11.11,11.11,0,0,1,4.81-1,13.76,13.76,0,0,1,5.4,1.05,12.61,12.61,0,0,1,4.29,3,13.4,13.4,0,0,1,2.81,4.67,17.89,17.89,0,0,1,1,6.16,17.89,17.89,0,0,1-1,6.16A13.4,13.4,0,0,1,276,46.24a12.61,12.61,0,0,1-4.29,3,13.76,13.76,0,0,1-5.4,1,11.11,11.11,0,0,1-4.81-1,11.78,11.78,0,0,1-3.62-2.6V58.52h-8.26ZM264.21,43a7.16,7.16,0,0,0,5.14-1.94,7.48,7.48,0,0,0,2-5.67,7.45,7.45,0,0,0-2-5.67,7.17,7.17,0,0,0-5.14-1.95,7.85,7.85,0,0,0-3.72.95,6,6,0,0,0-2.65,2.73v7.94a6.05,6.05,0,0,0,2.65,2.67A7.84,7.84,0,0,0,264.21,43Z"/><path class="cls-1" d="M303.8,46.64a12.56,12.56,0,0,1-3.65,2.6,10.92,10.92,0,0,1-4.78,1,13.76,13.76,0,0,1-5.4-1,12.61,12.61,0,0,1-4.29-3,13.4,13.4,0,0,1-2.81-4.67,17.89,17.89,0,0,1-1-6.16,17.89,17.89,0,0,1,1-6.16,13.4,13.4,0,0,1,2.81-4.67,12.61,12.61,0,0,1,4.29-3,13.76,13.76,0,0,1,5.4-1.05,10.92,10.92,0,0,1,4.78,1,12.16,12.16,0,0,1,3.65,2.65v-3h8.26v28.3H303.8ZM297.43,43a7.71,7.71,0,0,0,3.7-.94,6.37,6.37,0,0,0,2.67-2.67V31.47a6.29,6.29,0,0,0-2.67-2.73,7.72,7.72,0,0,0-3.7-.95,7.13,7.13,0,0,0-5.13,1.95,7.42,7.42,0,0,0-2.06,5.67,7.45,7.45,0,0,0,2.06,5.67A7.12,7.12,0,0,0,297.43,43Z"/><path class="cls-1" d="M330.1,50.26A15.51,15.51,0,0,1,323.62,49a14,14,0,0,1-4.7-3.35,13.8,13.8,0,0,1-2.83-4.75,16.28,16.28,0,0,1,0-11,13.84,13.84,0,0,1,2.83-4.76,14.11,14.11,0,0,1,4.7-3.34,15.51,15.51,0,0,1,6.48-1.27,14.13,14.13,0,0,1,7.38,1.83,17,17,0,0,1,5.26,5.13L337.07,32a11.42,11.42,0,0,0-2.65-3,6,6,0,0,0-3.83-1.25,6.63,6.63,0,0,0-5.24,2.08,8.11,8.11,0,0,0-1.84,5.54A8.11,8.11,0,0,0,325.35,41,6.63,6.63,0,0,0,330.59,43a6,6,0,0,0,3.83-1.24,11.58,11.58,0,0,0,2.65-3l5.67,4.49a17,17,0,0,1-5.26,5.13A14.13,14.13,0,0,1,330.1,50.26Z"/><path class="cls-1" d="M359.37,50.32a16.82,16.82,0,0,1-6.4-1.16A14.43,14.43,0,0,1,348.13,46a13.8,13.8,0,0,1-3.05-4.73A15.65,15.65,0,0,1,344,35.52a16.65,16.65,0,0,1,1.08-6.11,13.9,13.9,0,0,1,3-4.72,13.56,13.56,0,0,1,4.59-3.05,16.23,16.23,0,0,1,11.43-.08,12.37,12.37,0,0,1,4.29,2.8,12.19,12.19,0,0,1,2.73,4.35,16,16,0,0,1,.94,5.62c0,.5,0,1.1-.08,1.78a15.89,15.89,0,0,1-.19,1.62H352.18a7,7,0,0,0,2.27,4,9.2,9.2,0,0,0,9.64.4,11.68,11.68,0,0,0,3-2.51l4.37,5.46a17,17,0,0,1-4.94,3.67A15.41,15.41,0,0,1,359.37,50.32ZM358.5,27.2a6.3,6.3,0,0,0-3.81,1.13,6.47,6.47,0,0,0-2.24,3.41h11.67a4.83,4.83,0,0,0-1.73-3.41A6.2,6.2,0,0,0,358.5,27.2Z"/></g></g></svg>